PathFileType	4	(X/Y/Z)	Patient4_TMGait_0pt4_03_right_32.trc.trc
DataRate	CameraRate	NumFrames	NumMarkers	Units	OrigDataRate	OrigDataStartFrame	OrigNumFrames
73.684210526316	73.684210526316	5	33	mm	73.684210526316	18	       141
Frame#	Time	Sacral			L.Shoulder			Chest			R.Shoulder			Neck			R.ASIS			L.ASIS			R.Thigh.Superior			R.Thigh.Lateral			R.Thigh.Inferior			R.Patella			L.Thigh.Superior			L.Thigh.Lateral			L.Thigh.Inferior			L.Patella			L.Shank.Superior			L.Shank.Lateral			L.Shank.Inferior			R.Shank.Superior			R.Shank.Lateral			R.Shank.Inferior			R.Heel			R.Midfoot.Superior			R.Midfoot.Lateral			R.Toe			L.Heel			L.Midfoot.Lateral			L.Midfoot.Superior			L.Toe			L.Elbow			L.Wrist			R.Elbow			R.Wrist			
		X1	Y1	Z1	X2	Y2	Z2	X3	Y3	Z3	X4	Y4	Z4	X5	Y5	Z5	X6	Y6	Z6	X7	Y7	Z7	X8	Y8	Z8	X9	Y9	Z9	X10	Y10	Z10	X11	Y11	Z11	X12	Y12	Z12	X13	Y13	Z13	X14	Y14	Z14	X15	Y15	Z15	X16	Y16	Z16	X17	Y17	Z17	X18	Y18	Z18	X19	Y19	Z19	X20	Y20	Z20	X21	Y21	Z21	X22	Y22	Z22	X23	Y23	Z23	X24	Y24	Z24	X25	Y25	Z25	X26	Y26	Z26	X27	Y27	Z27	X28	Y28	Z28	X29	Y29	Z29	X30	Y30	Z30	X31	Y31	Z31	X32	Y32	Z32	X33	Y33	Z33	

18	41.770714285714	850.291440685821	1008.282602743507	405.631326785890	1046.799719570190	1429.140806287934	219.974824240789	1135.855372993361	1366.597528506745	391.095881382249	1040.014333271943	1445.517021634699	556.383513404264	1012.738097272172	1497.163094565156	374.056361222358	1072.854964072815	947.022225601152	539.174736193841	1074.475063530863	964.060579453142	263.048146656877	1137.727396435892	763.770567535425	518.321215216562	1087.884140179726	648.695932070132	596.062092885218	1174.402281551462	602.704553894031	517.349275553989	1203.941225790842	523.381708672270	536.013517987255	1095.671369607858	742.574342778153	295.089382417412	993.585578384956	637.170157725856	227.445785263592	1061.824773326349	551.166327593948	293.758850380192	1051.995671677514	485.127655590403	302.723966282311	1024.957030727482	415.362701523802	293.595643024144	931.552723450537	303.362233495331	241.521310742951	977.808872719389	190.995171115554	315.513472883568	1190.152307777988	439.123524925153	549.803748854823	1142.439809879458	327.619396080901	620.922358118753	1211.898961563007	240.776914988297	570.031693311898	1124.919306820488	49.776551640605	553.481092374993	1286.931948439011	130.014761247386	584.187894478135	1212.888539974355	52.021560129201	622.875311955320	1413.662865161675	98.720055833776	604.166741283048	848.723900021608	38.586431064735	363.915572242117	919.136771836502	34.662260007630	280.066399250607	1003.478503125113	95.284354029676	304.898460994120	1131.190213271009	43.899900561428	271.282493986791	1085.208132991974	1090.344248449471	79.213451292496	1335.962011893433	1021.114598607037	75.575111861720	924.233496895208	1123.030650024743	679.918410739936	926.707700269710	863.235212654967	708.388576836937	
19	41.784285714286	851.383512501965	1007.540186552948	407.409180404502	1046.917216653365	1428.687354322024	222.212410226461	1135.996172399551	1366.296680054438	393.366727487715	1039.875777555585	1445.034198353869	558.580543132539	1012.583085446717	1496.559261008702	376.216275270702	1073.849854739182	945.840294979495	540.931742822321	1075.564858720290	963.821135517954	264.818868474227	1137.172844625702	761.211392287061	520.221469613563	1085.153350196647	646.011242222190	596.771159776371	1171.929376897978	599.873972425463	518.569219603884	1200.486160382396	521.024495764223	536.650165116213	1094.710373234096	741.619089568565	296.248431411638	991.153027736881	637.284239751625	228.414234040206	1058.339310830685	550.502434742014	294.465813593333	1047.947471647178	484.640398529971	303.206772984833	1020.569936333777	415.213943980189	294.029943236069	926.603237423504	303.685367790176	241.881755467290	972.704021795808	190.974244568126	315.554885593768	1186.903591969045	436.613123366437	549.836248702960	1138.766253538330	324.519455174419	619.438472271143	1209.149594581363	238.312474251948	568.773580831133	1123.002848276576	47.837999332907	550.033484791381	1284.777043805518	127.396124577509	582.929919904530	1210.076335471631	49.749601369341	620.366456026511	1410.999614910237	95.564817136554	603.848399631628	843.240266868023	38.645206827315	363.886783799770	913.642486214022	34.689405695781	280.037376097034	998.001068638979	95.259937613543	304.867132450191	1125.683434661870	43.822758985521	271.273915972198	1086.335651720937	1090.216983270762	81.279441364193	1338.150055699946	1025.933175939576	78.518381071438	920.882783055418	1124.005386833645	681.508079507829	922.009925746808	864.007991623563	708.766066243921	
20	41.797857142857	852.687283099309	1006.595712551532	409.505712344709	1046.803750055484	1428.156324424379	224.637405133458	1136.060867172912	1366.027410488074	395.785458461777	1039.672566087746	1444.478641897048	560.986810970648	1012.266853840570	1495.867495805424	378.576793740237	1075.168557105996	944.588229310093	542.810439168575	1076.771617454028	963.513032087513	266.757144498011	1137.315252539554	758.747627337092	522.044915635362	1083.108583348967	643.313066356326	597.201743335700	1170.147917607459	597.203667461033	519.494821611607	1197.641934424423	518.476248000644	536.961257226846	1093.908500725770	740.606244605697	297.422859312201	988.770401474001	637.398276204000	229.506619004963	1054.952314747414	549.811009727448	295.209814372302	1044.033569534132	484.103638761659	303.740285275415	1016.255300762825	415.036986484899	294.542659853978	921.675373375163	304.034976180014	242.334600791980	967.635894620867	190.941051494983	315.622956017457	1183.665131265617	433.669933322738	549.526030008894	1134.199124788584	321.399667641672	617.572417716769	1204.745979688935	235.303009604229	567.157774232251	1117.868693713025	46.308331002585	546.346476724527	1279.903712460914	123.796791330211	581.213578101433	1203.998814956689	47.373855811053	617.675486897981	1405.394814082939	90.544501958876	603.340761031084	837.755442316969	38.678405939602	363.864800636318	908.144715500962	34.710814412937	280.013919471676	992.508887908445	95.237354422246	304.848630066463	1120.169916257715	43.752029053377	271.262211335646	1087.246049973199	1089.938418219881	83.626890992119	1339.876113372845	1029.854303797748	81.582486746073	918.244770778919	1124.594572796422	683.295505379336	918.816685012972	864.350262268900	709.173136393034	
21	41.811428571429	854.184518480733	1005.471632916995	411.883374128655	1046.506639154571	1427.563110116808	227.256850857622	1136.073528924751	1365.787869702662	398.365871397064	1039.421920747228	1443.847430513928	563.611176151722	1011.820665935234	1495.103719205852	381.148404160507	1076.779100937978	943.299006648568	544.804962916409	1078.096337765942	963.142224333597	268.847628024343	1138.105467061220	756.383741332558	523.790147537236	1081.700389430952	640.664456386425	597.395021004994	1168.998427570145	594.727274684065	520.144761603780	1195.346210038985	515.813329134373	536.921074894293	1093.290023356126	739.543958403661	298.605209737866	986.494776792116	637.497574767223	230.729440851061	1051.736333043116	549.089328655930	296.010421444136	1040.344483024523	483.497673799681	304.348635016394	1012.090217900306	414.809326666446	295.153885255374	916.825417078078	304.404957244933	242.893880550347	962.613424564640	190.875138383873	315.734856382122	1180.533621792920	430.414898158029	548.920577033384	1129.090267943267	318.312174595371	615.499951857949	1199.127155130536	231.873577785873	565.284328797639	1110.229062574728	45.085411845444	542.687465168592	1272.934154640787	119.485500018543	579.117991873252	1195.456557210763	44.989462744952	614.981118060585	1397.587769557676	84.175908295960	602.596693589443	832.268975183221	38.676958102630	363.849122674230	902.646122608332	34.719820878177	279.999706419223	987.005223009283	95.215395288051	304.847638482485	1114.656581726194	43.679271413045	271.247822040759	1087.905629820366	1089.506415712893	86.257988046343	1341.145115792841	1032.855292577361	84.755303512071	916.350652572134	1124.748186472357	685.279279200604	917.102751623542	864.228043634845	709.707619465215	
22	41.825000000000	855.846262554151	1004.209746782707	414.497920921233	1046.084025147510	1426.938978970849	230.074415316685	1136.062402870991	1365.582062455902	401.118065280214	1039.149642153742	1443.148876515639	566.457599427393	1011.285908858933	1494.297685763032	383.938459939557	1078.634516893662	942.022868533303	546.908704683350	1079.536627305556	962.728167864480	271.070796513060	1139.460826549945	754.146895964490	525.462644748238	1080.875117817734	638.153085471866	597.423049377846	1168.405741144931	592.495747230668	520.559214192719	1193.525955328993	513.141284311945	536.549673731097	1092.879206163431	738.449892853859	299.799325908613	984.397273370244	637.566865812375	232.093827113560	1048.781963766656	548.338335327527	296.894208066272	1036.988280560232	482.802560074926	305.058593842449	1008.167721949371	414.508837275910	295.883424492317	912.119862190801	304.792616105312	243.575697027258	957.652482594068	190.758240882685	315.907160510329	1177.613131961914	427.016146870743	548.106133217982	1123.830452222812	315.346824736974	613.423404302090	1192.799104612292	228.219403234118	563.284211156351	1100.931553798855	44.104557556635	539.306868691712	1264.588835089792	114.827841343445	576.773805293807	1185.368512095144	42.730601037791	612.458741683796	1388.404581138713	77.107825228499	601.618005488033	826.779915430198	38.637595319908	363.838853125765	897.150481107564	34.710785357483	279.998993784569	981.496716307939	95.193023136290	304.867334052055	1109.152491524985	43.594087646236	271.230202953645	1088.278309578052	1088.931791194415	89.176037021192	1341.951914742002	1034.922743485879	88.025496758076	915.230029615975	1124.440062166439	687.458121951941	916.844427363914	863.636143423735	710.455104595812	
